<svg 
 xmlns="http://www.w3.org/2000/svg"
 xmlns:xlink="http://www.w3.org/1999/xlink"
 width="239px" height="219px">
<path fill-rule="evenodd"  fill="rgb(255, 255, 255)"
 d="M70.401,87.286 C70.019,88.516 70.115,89.581 70.687,90.479 C71.258,91.378 72.211,91.828 73.545,91.828 L160.461,91.828 C161.700,91.828 162.915,91.378 164.107,90.479 C165.298,89.581 166.084,88.516 166.465,87.286 L169.467,78.201 C169.849,76.971 169.753,75.906 169.181,75.007 C168.609,74.108 167.657,73.659 166.322,73.659 L79.406,73.659 C78.168,73.659 76.952,74.108 75.761,75.007 C74.570,75.906 73.784,76.971 73.403,78.201 L70.401,87.286 ZM82.266,50.948 C81.884,52.178 81.980,53.242 82.551,54.141 C83.123,55.040 84.076,55.490 85.411,55.490 L172.327,55.490 C173.566,55.490 174.781,55.040 175.972,54.141 C177.163,53.242 177.949,52.178 178.331,50.948 L181.333,41.863 C181.714,40.633 181.618,39.568 181.047,38.669 C180.475,37.770 179.522,37.321 178.187,37.321 L91.272,37.321 C90.033,37.321 88.818,37.770 87.627,38.669 C86.435,39.568 85.649,40.633 85.268,41.863 L82.266,50.948 ZM234.368,50.664 C238.180,56.058 239.038,62.161 236.941,68.974 L197.629,197.578 C195.818,203.634 192.173,208.720 186.693,212.837 C181.214,216.953 175.376,219.011 169.181,219.011 L37.235,219.011 C29.897,219.011 22.821,216.480 16.007,211.417 C9.192,206.354 4.451,200.133 1.783,192.751 C-0.505,186.411 -0.600,180.402 1.497,174.724 C1.497,174.346 1.640,173.068 1.926,170.892 C2.212,168.715 2.402,166.965 2.498,165.640 C2.593,164.883 2.450,163.865 2.069,162.588 C1.687,161.311 1.545,160.388 1.640,159.820 C1.830,158.779 2.212,157.785 2.784,156.839 C3.355,155.893 4.142,154.781 5.142,153.503 C6.143,152.226 6.929,151.114 7.501,150.168 C9.693,146.572 11.837,142.243 13.934,137.179 C16.030,132.117 17.460,127.787 18.223,124.192 C18.508,123.245 18.532,121.826 18.294,119.933 C18.056,118.041 18.032,116.716 18.223,115.959 C18.508,114.918 19.318,113.593 20.653,111.984 C21.987,110.375 22.797,109.287 23.083,108.719 C25.084,105.313 27.086,100.960 29.087,95.660 C31.088,90.361 32.279,86.103 32.661,82.885 C32.756,82.033 32.637,80.520 32.303,78.343 C31.970,76.166 31.993,74.841 32.375,74.368 C32.756,73.138 33.804,71.695 35.520,70.039 C37.235,68.383 38.283,67.318 38.665,66.845 C40.476,64.385 42.501,60.387 44.740,54.851 C46.980,49.315 48.290,44.749 48.672,41.153 C48.767,40.396 48.624,39.189 48.243,37.534 C47.861,35.877 47.766,34.624 47.957,33.772 C48.147,33.015 48.576,32.163 49.244,31.217 C49.911,30.271 50.768,29.182 51.817,27.952 C52.865,26.722 53.675,25.728 54.247,24.971 C55.009,23.836 55.795,22.393 56.606,20.642 C57.415,18.891 58.130,17.235 58.750,15.674 C59.369,14.112 60.131,12.409 61.037,10.564 C61.942,8.718 62.872,7.204 63.824,6.022 C64.778,4.839 66.040,3.727 67.613,2.686 C69.185,1.645 70.901,1.101 72.759,1.053 C74.618,1.006 76.881,1.266 79.549,1.834 L79.406,2.260 C83.028,1.408 85.458,0.983 86.697,0.983 L195.485,0.983 C202.537,0.983 207.970,3.632 211.782,8.932 C215.594,14.231 216.451,20.382 214.355,27.384 L175.186,155.987 C171.755,167.249 168.348,174.512 164.964,177.776 C161.581,181.041 155.458,182.673 146.595,182.673 L22.368,182.673 C19.795,182.673 17.984,183.383 16.936,184.802 C15.887,186.316 15.840,188.351 16.793,190.906 C19.080,197.530 25.942,200.842 37.378,200.842 L169.324,200.842 C172.088,200.842 174.757,200.109 177.330,198.642 C179.903,197.175 181.571,195.212 182.333,192.751 L225.219,52.651 C225.886,50.569 226.125,47.872 225.934,44.560 C229.556,45.979 232.367,48.014 234.368,50.664 Z"/>
</svg>