<svg 
 xmlns="http://www.w3.org/2000/svg"
 xmlns:xlink="http://www.w3.org/1999/xlink"
 width="256px" height="256px">
<path fill-rule="evenodd"  fill="rgb(255, 255, 255)"
 d="M115.383,204.918 L115.383,179.078 L140.621,179.078 L140.621,204.918 L115.383,204.918 ZM128.002,-0.001 C163.255,-0.001 193.400,12.518 218.439,37.557 C243.476,62.597 255.995,92.743 255.995,127.998 C255.995,163.254 243.476,193.400 218.439,218.440 C193.400,243.479 163.255,255.998 128.002,255.998 C92.748,255.998 62.603,243.479 37.565,218.440 C12.527,193.400 0.008,163.254 0.008,127.998 C0.008,92.743 12.527,62.597 37.565,37.557 C62.603,12.518 92.748,-0.001 128.002,-0.001 ZM128.002,230.759 C156.044,230.759 180.180,220.643 200.411,200.411 C220.642,180.180 230.757,156.043 230.757,127.998 C230.757,99.955 220.642,75.817 200.411,55.585 C180.180,35.354 156.044,25.238 128.002,25.238 C99.959,25.238 75.823,35.354 55.592,55.585 C35.362,75.817 25.246,99.955 25.246,127.998 C25.246,156.043 35.362,180.180 55.592,200.411 C75.823,220.643 99.959,230.759 128.002,230.759 ZM128.002,51.078 C142.023,51.078 154.041,56.086 164.056,66.102 C174.071,76.118 179.079,88.136 179.079,102.158 C179.079,112.975 172.670,124.092 159.850,135.510 C147.030,146.928 140.621,157.244 140.621,166.458 L115.383,166.458 C115.383,157.244 117.386,149.332 121.392,142.722 C125.398,136.111 129.804,131.303 134.612,128.299 C139.419,125.294 143.825,121.589 147.832,117.182 C151.838,112.775 153.841,107.767 153.841,102.158 C153.841,95.347 151.237,89.438 146.029,84.430 C140.821,79.423 134.812,76.919 128.002,76.919 C121.191,76.919 115.182,79.423 109.975,84.430 C104.767,89.438 102.163,95.347 102.163,102.158 L76.924,102.158 C76.924,88.136 81.932,76.118 91.947,66.102 C101.962,56.086 113.980,51.078 128.002,51.078 Z"/>
</svg>