<svg 
 xmlns="http://www.w3.org/2000/svg"
 xmlns:xlink="http://www.w3.org/1999/xlink"
 width="39px" height="38px">
<path fill-rule="evenodd"  fill="white"
 d="M38.028,35.075 C38.028,35.867 37.742,36.552 37.168,37.131 C36.595,37.710 35.916,37.999 35.131,37.999 C34.316,37.999 33.637,37.710 33.094,37.131 L25.330,29.320 C22.629,31.208 19.618,32.152 16.298,32.152 C14.140,32.152 12.077,31.729 10.107,30.884 C8.138,30.039 6.440,28.897 5.014,27.458 C3.588,26.020 2.457,24.307 1.619,22.320 C0.781,20.333 0.363,18.251 0.363,16.073 C0.363,13.896 0.781,11.814 1.619,9.827 C2.457,7.840 3.588,6.127 5.014,4.688 C6.440,3.249 8.138,2.107 10.107,1.262 C12.077,0.417 14.140,-0.005 16.298,-0.005 C18.456,-0.005 20.520,0.417 22.489,1.262 C24.458,2.107 26.156,3.249 27.582,4.688 C29.008,6.127 30.140,7.840 30.977,9.827 C31.815,11.814 32.234,13.896 32.234,16.073 C32.234,19.423 31.298,22.460 29.427,25.186 L37.191,33.020 C37.749,33.583 38.028,34.268 38.028,35.075 ZM26.439,16.073 C26.439,13.256 25.447,10.847 23.462,8.845 C21.478,6.843 19.090,5.842 16.298,5.842 C13.506,5.842 11.118,6.843 9.134,8.845 C7.150,10.847 6.157,13.256 6.157,16.073 C6.157,18.890 7.150,21.300 9.134,23.302 C11.118,25.304 13.506,26.305 16.298,26.305 C19.090,26.305 21.478,25.304 23.462,23.302 C25.447,21.300 26.439,18.890 26.439,16.073 Z"/>
</svg>