<svg 
 xmlns="http://www.w3.org/2000/svg"
 xmlns:xlink="http://www.w3.org/1999/xlink"
 width="301px" height="260px">
<path fill-rule="evenodd"  fill="rgb(255, 255, 255)"
 d="M221.593,95.660 L286.913,95.660 C290.756,95.660 294.064,96.944 296.840,99.512 C299.615,102.080 301.002,105.290 301.002,109.141 C296.733,126.261 290.329,150.336 281.790,181.366 C273.252,212.395 267.915,231.975 265.781,240.108 C261.938,253.376 253.186,260.009 239.524,260.009 L61.495,260.009 C47.833,260.009 39.081,253.376 35.239,240.108 L0.657,112.993 C0.230,112.137 0.017,110.853 0.017,109.141 C0.017,105.290 1.404,102.080 4.179,99.512 C6.955,96.944 10.263,95.660 14.106,95.660 L79.426,95.660 L138.983,5.781 C141.544,1.929 145.386,0.003 150.510,0.003 C155.633,0.003 159.475,1.929 162.037,5.781 L221.593,95.660 ZM109.525,95.660 L191.495,95.660 L150.510,35.313 L109.525,95.660 ZM150.510,205.440 C157.768,205.440 164.171,202.658 169.722,197.094 C175.272,191.530 178.046,185.110 178.046,177.835 C178.046,170.559 175.272,164.139 169.722,158.575 C164.171,153.011 157.768,150.229 150.510,150.229 C143.252,150.229 136.848,153.011 131.298,158.575 C125.748,164.139 122.973,170.559 122.973,177.835 C122.973,185.110 125.748,191.530 131.298,197.094 C136.848,202.658 143.252,205.440 150.510,205.440 Z"/>
</svg>