<svg 
 xmlns="http://www.w3.org/2000/svg"
 xmlns:xlink="http://www.w3.org/1999/xlink"
 width="266px" height="199px">
<path fill-rule="evenodd"  fill="rgb(255, 255, 255)"
 d="M209.371,84.336 C209.371,61.027 199.154,41.146 178.719,24.693 C158.284,8.239 133.606,0.013 104.686,0.013 C75.765,0.013 51.087,8.239 30.652,24.693 C10.217,41.146 -0.000,61.027 -0.000,84.336 C-0.000,108.330 11.083,128.725 33.250,145.521 C28.055,158.547 20.955,170.544 11.949,181.514 C40.697,181.514 63.556,176.372 80.528,166.088 C88.840,167.460 96.979,168.145 104.945,168.145 C133.693,168.145 158.284,160.004 178.719,143.722 C199.154,127.440 209.371,107.645 209.371,84.336 ZM232.231,64.283 C233.616,71.139 234.309,77.823 234.309,84.336 C234.309,110.730 224.265,133.953 204.176,154.006 C184.087,174.058 158.977,186.483 128.844,191.283 C142.352,196.424 156.379,198.995 170.926,198.995 C184.780,198.995 198.114,196.595 210.930,191.797 C223.745,196.253 238.984,198.481 256.649,198.481 C250.414,190.940 245.219,182.885 241.063,174.315 C257.688,159.575 266.000,142.265 266.000,122.384 C266.000,98.733 254.744,79.366 232.231,64.283 Z"/>
</svg>